# xmcd
#
# Track frame offsets: 
#        150
#        11470
#        23352
#        33987
#        45902
#        59673
#        73839
#        86084
#        99496
#        110570
#        120162
#        133858
#        145265
#        154950
#        166667
#        176822
#        187744
#        201255
#        211403
#        223542
#        233949
#        244056
#        256749
#        267993
#        277503
#
# Disc length: 3867 seconds
#
# Revision: 1
# Processed by: cddbd v1.5.2PL0 Copyright (c) Steve Scherf et al.
# Submitted via: ExactAudioCopyFreeDBPlugin 1.0
#
DISCID=560f1919
DTITLE=Various Artist - Soul Sixties [Real Gone Music]
DYEAR=2017
DGENRE=Soul
TTITLE0=Sam Cooke - Cupid
TTITLE1=The Miracles - Mighty Good Lovin'
TTITLE2=Mitty Collier - I've Got Love
TTITLE3=Gino Parks - That's No Lie
TTITLE4=Barrett Strong - You Got What it Takes
TTITLE5=Aretha Franklin - Won't Be Long
TTITLE6=Bobby "Blue" Bland - I Pity the Fool
TTITLE7=Chuck Jackson - Come On and Love Me
TTITLE8=Johnny Nash - World of Tears
TTITLE9=The Clovers - Have Gun, Will Travel
TTITLE10=Etta James - Seven Day Fool
TTITLE11=The Orlons - I'll Be True
TTITLE12=William Bell - Formula of Love
TTITLE13=Marv Johnson - Merry-Go-Round
TTITLE14=Billy Bland - My Heart's on Fire
TTITLE15=Wade Flemons - Please Send Me Someone to Love
TTITLE16=Ben E. King - Stand By Me
TTITLE17=The Olympics - Stay Where You Are
TTITLE18=Solomon Burke - Just Out of Reach
TTITLE19=The Temptations - Oh, Mother of Mine
TTITLE20=Sammy Turner - Falling
TTITLE21=Jerry Butler - Find Another Girl
TTITLE22=Carla Thomas - A Love of My Own
TTITLE23=The Top Notes - Twist and Shout
TTITLE24=Mary Wells - I Don't Want to Take a Chance
EXTD=
EXTT0=
EXTT1=
EXTT2=
EXTT3=
EXTT4=
EXTT5=
EXTT6=
EXTT7=
EXTT8=
EXTT9=
EXTT10=
EXTT11=
EXTT12=
EXTT13=
EXTT14=
EXTT15=
EXTT16=
EXTT17=
EXTT18=
EXTT19=
EXTT20=
EXTT21=
EXTT22=
EXTT23=
EXTT24=
PLAYORDER=
